<?xml version="1.0" encoding="utf-8"?>
<!-- Generator: Adobe Illustrator 24.3.0, SVG Export Plug-In . SVG Version: 6.00 Build 0)  -->
<svg version="1.1" id="Layer_1" xmlns="http://www.w3.org/2000/svg" xmlns:xlink="http://www.w3.org/1999/xlink" x="0px" y="0px"
	 width="170px" height="126.1px" viewBox="0 0 170 126.1" style="enable-background:new 0 0 170 126.1;" xml:space="preserve">
<style type="text/css">
	.st0{fill:#28B4D2;}
	.st1{fill:#E1BA23;}
	.st2{opacity:0.57;fill:url(#XMLID_90_);}
	.st3{fill:#469142;}
	.st4{opacity:0.57;fill:url(#XMLID_91_);}
	.st5{opacity:0.57;fill:url(#XMLID_92_);}
	.st6{opacity:0.57;fill:url(#XMLID_111_);}
	.st7{opacity:0.57;fill:url(#XMLID_112_);}
	.st8{opacity:0.57;fill:url(#XMLID_113_);}
	.st9{opacity:0.48;fill:url(#XMLID_114_);}
	.st10{opacity:0.48;}
	.st11{fill:#FFB200;}
	.st12{fill:#0026AA;}
</style>
<g id="XMLID_4_">
	<g id="XMLID_1_">
		<g id="XMLID_587_">
			<g id="XMLID_332_">
				<path id="XMLID_635_" class="st0" d="M88.8,11.6c0,0.4,0,0.8-0.1,1.2c-0.5,2.6-2.8,4.5-5.6,4.5c-2,0-3.7-1-4.8-2.6
					c-0.6-0.9-1-2-1-3.2c0-3.2,2.6-5.7,5.7-5.7S88.8,8.4,88.8,11.6z"/>
				<g id="XMLID_613_">
					<path id="XMLID_634_" class="st0" d="M101.2,21.9L85.3,34.1c-1.3,1-2.8,1.5-4.3,1.5c-1.8,0-3.6-0.7-5-2.1l-4.1-4.1
						c0.7,0.1,1.5,0.2,2.3,0.2c3,0,5.6-1.1,7.7-3l14.5-11.1c1.8-1.3,4.3-1,5.6,0.7C103.3,18,103,20.5,101.2,21.9z"/>
				</g>
				<path id="XMLID_603_" class="st1" d="M81.8,26.6c-2,1.9-4.7,3-7.7,3c-0.8,0-1.5-0.1-2.3-0.2l-4-4c-1.6-1.6-1.6-4.1,0-5.7
					s4.1-1.6,5.7,0l7.5,7.5L81.8,26.6z"/>
				<linearGradient id="XMLID_90_" gradientUnits="userSpaceOnUse" x1="71.5952" y1="17.9213" x2="76.1033" y2="29.6652">
					<stop  offset="0" style="stop-color:#FFFFFF;stop-opacity:0"/>
					<stop  offset="9.636413e-02" style="stop-color:#F8F8F8;stop-opacity:9.636413e-02"/>
					<stop  offset="0.2361" style="stop-color:#E5E5E5;stop-opacity:0.2361"/>
					<stop  offset="0.4024" style="stop-color:#C6C5C5;stop-opacity:0.4024"/>
					<stop  offset="0.5891" style="stop-color:#9B9999;stop-opacity:0.5891"/>
					<stop  offset="0.7928" style="stop-color:#636061;stop-opacity:0.7928"/>
					<stop  offset="1" style="stop-color:#231F20"/>
				</linearGradient>
				<path id="XMLID_473_" class="st2" d="M81.8,26.6c-2,1.9-4.7,3-7.7,3c-0.8,0-1.5-0.1-2.3-0.2l-4-4c-1.6-1.6-1.6-4.1,0-5.7
					s4.1-1.6,5.7,0l7.5,7.5L81.8,26.6z"/>
			</g>
			<path id="XMLID_641_" class="st3" d="M88.8,11.6c0,0.4,0,0.8-0.1,1.2c-0.5,2.6-2.8,4.5-5.6,4.5c-2,0-3.7-1-4.8-2.6
				c-0.6-0.9-1-2-1-3.2c0-3.2,2.6-5.7,5.7-5.7S88.8,8.4,88.8,11.6z"/>
			<g id="XMLID_639_">
				<path id="XMLID_640_" class="st0" d="M101.2,21.9L85.3,34.1c-1.3,1-2.8,1.5-4.3,1.5c-1.8,0-3.6-0.7-5-2.1l-4.1-4.1
					c0.7,0.1,1.5,0.2,2.3,0.2c3,0,5.6-1.1,7.7-3l14.5-11.1c1.8-1.3,4.3-1,5.6,0.7C103.3,18,103,20.5,101.2,21.9z"/>
			</g>
			<path id="XMLID_638_" class="st1" d="M81.8,26.6c-2,1.9-4.7,3-7.7,3c-0.8,0-1.5-0.1-2.3-0.2l-4-4c-1.6-1.6-1.6-4.1,0-5.7
				s4.1-1.6,5.7,0l7.5,7.5L81.8,26.6z"/>
			<linearGradient id="XMLID_91_" gradientUnits="userSpaceOnUse" x1="71.5952" y1="17.9213" x2="76.1033" y2="29.6652">
				<stop  offset="0" style="stop-color:#FFFFFF;stop-opacity:0"/>
				<stop  offset="9.636413e-02" style="stop-color:#F8F8F8;stop-opacity:9.636413e-02"/>
				<stop  offset="0.2361" style="stop-color:#E5E5E5;stop-opacity:0.2361"/>
				<stop  offset="0.4024" style="stop-color:#C6C5C5;stop-opacity:0.4024"/>
				<stop  offset="0.5891" style="stop-color:#9B9999;stop-opacity:0.5891"/>
				<stop  offset="0.7928" style="stop-color:#636061;stop-opacity:0.7928"/>
				<stop  offset="1" style="stop-color:#231F20"/>
			</linearGradient>
			<path id="XMLID_637_" class="st4" d="M81.8,26.6c-2,1.9-4.7,3-7.7,3c-0.8,0-1.5-0.1-2.3-0.2l-4-4c-1.6-1.6-1.6-4.1,0-5.7
				s4.1-1.6,5.7,0l7.5,7.5L81.8,26.6z"/>
			<path id="XMLID_648_" class="st3" d="M80.8,72c0-0.4,0-0.8,0.1-1.2c0.5-2.6,2.8-4.5,5.6-4.5c2,0,3.7,1,4.8,2.6c0.6,0.9,1,2,1,3.2
				c0,3.2-2.6,5.7-5.7,5.7S80.8,75.2,80.8,72z"/>
			<g id="XMLID_646_">
				<path id="XMLID_647_" class="st0" d="M68.3,61.7l15.9-12.2c1.3-1,2.8-1.5,4.3-1.5c1.8,0,3.6,0.7,5,2.1l4.1,4.1
					c-0.7-0.1-1.5-0.2-2.3-0.2c-3,0-5.6,1.1-7.7,3L73.2,68.1c-1.8,1.3-4.3,1-5.6-0.7C66.2,65.6,66.6,63.1,68.3,61.7z"/>
			</g>
			<path id="XMLID_645_" class="st1" d="M87.7,57c2-1.9,4.7-3,7.7-3c0.8,0,1.5,0.1,2.3,0.2l4,4c1.6,1.6,1.6,4.1,0,5.7
				s-4.1,1.6-5.7,0l-7.5-7.5L87.7,57z"/>
			
				<linearGradient id="XMLID_92_" gradientUnits="userSpaceOnUse" x1="5126.8804" y1="-365.3872" x2="5131.3887" y2="-353.6433" gradientTransform="matrix(-1 0 0 -1 5224.8213 -299.7241)">
				<stop  offset="0" style="stop-color:#FFFFFF;stop-opacity:0"/>
				<stop  offset="9.636413e-02" style="stop-color:#F8F8F8;stop-opacity:9.636413e-02"/>
				<stop  offset="0.2361" style="stop-color:#E5E5E5;stop-opacity:0.2361"/>
				<stop  offset="0.4024" style="stop-color:#C6C5C5;stop-opacity:0.4024"/>
				<stop  offset="0.5891" style="stop-color:#9B9999;stop-opacity:0.5891"/>
				<stop  offset="0.7928" style="stop-color:#636061;stop-opacity:0.7928"/>
				<stop  offset="1" style="stop-color:#231F20"/>
			</linearGradient>
			<path id="XMLID_644_" class="st5" d="M87.7,57c2-1.9,4.7-3,7.7-3c0.8,0,1.5,0.1,2.3,0.2l4,4c1.6,1.6,1.6,4.1,0,5.7
				s-4.1,1.6-5.7,0l-7.5-7.5L87.7,57z"/>
			<path id="XMLID_740_" class="st1" d="M54.5,37.8c0.4,0,0.8,0,1.2,0.1c2.6,0.5,4.5,2.8,4.5,5.6c0,2-1,3.7-2.6,4.8
				c-0.9,0.6-2,1-3.2,1c-3.2,0-5.7-2.6-5.7-5.7C48.8,40.4,51.4,37.8,54.5,37.8z"/>
			<g id="XMLID_738_">
				<path id="XMLID_739_" class="st0" d="M64.8,25.3L77,41.3c1,1.3,1.5,2.8,1.5,4.3c0,1.8-0.7,3.6-2.1,5l-4.1,4.1
					c0.1-0.7,0.2-1.5,0.2-2.3c0-3-1.1-5.6-3-7.7L58.5,30.2c-1.3-1.8-1-4.3,0.7-5.6C61,23.2,63.5,23.6,64.8,25.3z"/>
			</g>
			<path id="XMLID_736_" class="st1" d="M69.6,44.7c1.9,2,3,4.7,3,7.7c0,0.8-0.1,1.5-0.2,2.3l-4,4c-1.6,1.6-4.1,1.6-5.7,0
				c-1.6-1.6-1.6-4.1,0-5.7l7.5-7.5L69.6,44.7z"/>
			
				<linearGradient id="XMLID_111_" gradientUnits="userSpaceOnUse" x1="2441.8601" y1="-2667.0991" x2="2446.3682" y2="-2655.3552" gradientTransform="matrix(0 -1 1 0 2727.9963 2496.825)">
				<stop  offset="0" style="stop-color:#FFFFFF;stop-opacity:0"/>
				<stop  offset="9.636413e-02" style="stop-color:#F8F8F8;stop-opacity:9.636413e-02"/>
				<stop  offset="0.2361" style="stop-color:#E5E5E5;stop-opacity:0.2361"/>
				<stop  offset="0.4024" style="stop-color:#C6C5C5;stop-opacity:0.4024"/>
				<stop  offset="0.5891" style="stop-color:#9B9999;stop-opacity:0.5891"/>
				<stop  offset="0.7928" style="stop-color:#636061;stop-opacity:0.7928"/>
				<stop  offset="1" style="stop-color:#231F20"/>
			</linearGradient>
			<path id="XMLID_735_" class="st6" d="M69.6,44.7c1.9,2,3,4.7,3,7.7c0,0.8-0.1,1.5-0.2,2.3l-4,4c-1.6,1.6-4.1,1.6-5.7,0
				c-1.6-1.6-1.6-4.1,0-5.7l7.5-7.5L69.6,44.7z"/>
			<g id="XMLID_731_">
				<path id="XMLID_732_" class="st0" d="M64.8,25.3L77,41.3c1,1.3,1.5,2.8,1.5,4.3c0,1.8-0.7,3.6-2.1,5l-4.1,4.1
					c0.1-0.7,0.2-1.5,0.2-2.3c0-3-1.1-5.6-3-7.7L58.5,30.2c-1.3-1.8-1-4.3,0.7-5.6C61,23.2,63.5,23.6,64.8,25.3z"/>
			</g>
			<path id="XMLID_730_" class="st3" d="M69.6,44.7c1.9,2,3,4.7,3,7.7c0,0.8-0.1,1.5-0.2,2.3l-4,4c-1.6,1.6-4.1,1.6-5.7,0
				c-1.6-1.6-1.6-4.1,0-5.7l7.5-7.5L69.6,44.7z"/>
			
				<linearGradient id="XMLID_112_" gradientUnits="userSpaceOnUse" x1="2441.8601" y1="-2667.0991" x2="2446.3682" y2="-2655.3552" gradientTransform="matrix(0 -1 1 0 2727.9963 2496.825)">
				<stop  offset="0" style="stop-color:#FFFFFF;stop-opacity:0"/>
				<stop  offset="9.636413e-02" style="stop-color:#F8F8F8;stop-opacity:9.636413e-02"/>
				<stop  offset="0.2361" style="stop-color:#E5E5E5;stop-opacity:0.2361"/>
				<stop  offset="0.4024" style="stop-color:#C6C5C5;stop-opacity:0.4024"/>
				<stop  offset="0.5891" style="stop-color:#9B9999;stop-opacity:0.5891"/>
				<stop  offset="0.7928" style="stop-color:#636061;stop-opacity:0.7928"/>
				<stop  offset="1" style="stop-color:#231F20"/>
			</linearGradient>
			<path id="XMLID_729_" class="st7" d="M69.6,44.7c1.9,2,3,4.7,3,7.7c0,0.8-0.1,1.5-0.2,2.3l-4,4c-1.6,1.6-4.1,1.6-5.7,0
				c-1.6-1.6-1.6-4.1,0-5.7l7.5-7.5L69.6,44.7z"/>
			<path id="XMLID_727_" class="st1" d="M115,45.8c-0.4,0-0.8,0-1.2-0.1c-2.6-0.5-4.5-2.8-4.5-5.6c0-2,1-3.7,2.6-4.8
				c0.9-0.6,2-1,3.2-1c3.2,0,5.7,2.6,5.7,5.7C120.7,43.2,118.1,45.8,115,45.8z"/>
			<g id="XMLID_651_">
				<path id="XMLID_726_" class="st0" d="M104.7,58.2L92.5,42.3c-1-1.3-1.5-2.8-1.5-4.3c0-1.8,0.7-3.6,2.1-5l4.1-4.1
					C97,29.7,97,30.4,97,31.2c0,3,1.1,5.6,3,7.7l11.1,14.5c1.3,1.8,1,4.3-0.7,5.6C108.6,60.3,106.1,60,104.7,58.2z"/>
			</g>
			<path id="XMLID_650_" class="st3" d="M100,38.9c-1.9-2-3-4.7-3-7.7c0-0.8,0.1-1.5,0.2-2.3l4-4c1.6-1.6,4.1-1.6,5.7,0
				c1.6,1.6,1.6,4.1,0,5.7l-7.5,7.5L100,38.9z"/>
			
				<linearGradient id="XMLID_113_" gradientUnits="userSpaceOnUse" x1="2756.6157" y1="2319.6333" x2="2761.1238" y2="2331.3772" gradientTransform="matrix(0 1 -1 0 2428.2722 -2727.9963)">
				<stop  offset="0" style="stop-color:#FFFFFF;stop-opacity:0"/>
				<stop  offset="9.636413e-02" style="stop-color:#F8F8F8;stop-opacity:9.636413e-02"/>
				<stop  offset="0.2361" style="stop-color:#E5E5E5;stop-opacity:0.2361"/>
				<stop  offset="0.4024" style="stop-color:#C6C5C5;stop-opacity:0.4024"/>
				<stop  offset="0.5891" style="stop-color:#9B9999;stop-opacity:0.5891"/>
				<stop  offset="0.7928" style="stop-color:#636061;stop-opacity:0.7928"/>
				<stop  offset="1" style="stop-color:#231F20"/>
			</linearGradient>
			<path id="XMLID_649_" class="st8" d="M100,38.9c-1.9-2-3-4.7-3-7.7c0-0.8,0.1-1.5,0.2-2.3l4-4c1.6-1.6,4.1-1.6,5.7,0
				c1.6,1.6,1.6,4.1,0,5.7l-7.5,7.5L100,38.9z"/>
		</g>
		<linearGradient id="XMLID_114_" gradientUnits="userSpaceOnUse" x1="72.3891" y1="9.5439" x2="97.147" y2="74.0405">
			<stop  offset="0" style="stop-color:#FFFFFF;stop-opacity:0"/>
			<stop  offset="9.636413e-02" style="stop-color:#F8F8F8;stop-opacity:9.636413e-02"/>
			<stop  offset="0.2361" style="stop-color:#E5E5E5;stop-opacity:0.2361"/>
			<stop  offset="0.4024" style="stop-color:#C6C5C5;stop-opacity:0.4024"/>
			<stop  offset="0.5891" style="stop-color:#9B9999;stop-opacity:0.5891"/>
			<stop  offset="0.7928" style="stop-color:#636061;stop-opacity:0.7928"/>
			<stop  offset="1" style="stop-color:#231F20"/>
		</linearGradient>
		<path id="XMLID_642_" class="st9" d="M78.3,14.7c-0.6-0.9-1-2-1-3.2c0-3.2,2.6-5.7,5.7-5.7c3.2,0,5.7,2.6,5.7,5.7
			c0,0.4,0,0.8-0.1,1.2c-0.5,2.6-2.8,4.5-5.6,4.5C81.1,17.3,79.3,16.3,78.3,14.7z M71.9,29.4l4.1,4.1c1.4,1.4,3.2,2.1,5,2.1
			c1.5,0,3-0.5,4.3-1.5l15.9-12.2c1.8-1.3,2.1-3.9,0.7-5.6c-1.3-1.8-3.9-2.1-5.6-0.7L81.8,26.6l-0.8,0.6l-7.5-7.5
			c-1.6-1.6-4.1-1.6-5.7,0c-1.6,1.6-1.6,4.1,0,5.7L71.9,29.4z M86.5,66.3c-2.8,0-5.1,1.9-5.6,4.5c-0.1,0.4-0.1,0.8-0.1,1.2
			c0,3.2,2.6,5.7,5.7,5.7c3.2,0,5.7-2.6,5.7-5.7c0-1.2-0.3-2.3-1-3.2C90.2,67.3,88.5,66.3,86.5,66.3z M97.6,54.2l-4.1-4.1
			c-1.4-1.4-3.2-2.1-5-2.1c-1.5,0-3,0.5-4.3,1.5L68.3,61.7c-1.8,1.3-2.1,3.9-0.7,5.6c1.3,1.8,3.9,2.1,5.6,0.7L87.7,57l0.8-0.6
			l7.5,7.5c1.6,1.6,4.1,1.6,5.7,0c1.6-1.6,1.6-4.1,0-5.7L97.6,54.2z M55.7,37.9c-0.4-0.1-0.8-0.1-1.2-0.1c-3.2,0-5.7,2.6-5.7,5.7
			c0,3.2,2.6,5.7,5.7,5.7c1.2,0,2.3-0.3,3.2-1c1.5-1,2.6-2.8,2.6-4.8C60.3,40.8,58.3,38.5,55.7,37.9z M72.3,54.6l4.1-4.1
			c1.4-1.4,2.1-3.2,2.1-5c0-1.5-0.5-3-1.5-4.3L64.8,25.3c-1.3-1.8-3.9-2.1-5.6-0.7c-1.8,1.3-2.1,3.9-0.7,5.6l11.1,14.5l0.6,0.8
			L62.7,53c-1.6,1.6-1.6,4.1,0,5.7c1.6,1.6,4.1,1.6,5.7,0L72.3,54.6z M115,34.4c-1.2,0-2.3,0.3-3.2,1c-1.5,1-2.6,2.8-2.6,4.8
			c0,2.8,1.9,5.1,4.5,5.6c0.4,0.1,0.8,0.1,1.2,0.1c3.2,0,5.7-2.6,5.7-5.7C120.7,36.9,118.1,34.4,115,34.4z M100,38.9l-0.6-0.8
			l7.5-7.5c1.6-1.6,1.6-4.1,0-5.7c-1.6-1.6-4.1-1.6-5.7,0l-4,4L93.1,33c-1.4,1.4-2.1,3.2-2.1,5c0,1.5,0.5,3,1.5,4.3l12.2,15.9
			c1.3,1.8,3.9,2.1,5.6,0.7c1.8-1.3,2.1-3.9,0.7-5.6L100,38.9z"/>
	</g>
</g>
<g class="st10">
	<g>
		<path class="st11" d="M15.9,87.1c0,1.3-0.3,2.3-0.9,3.2c-0.6,0.9-1.5,1.5-2.6,1.8v0.1c1.3,0.2,2.2,0.7,2.9,1.5
			c0.7,0.8,1,1.9,1,3.2c0,1.9-0.6,3.3-1.7,4.4c-1.2,1.1-2.7,1.7-4.7,1.7c-1.8,0-3.3-0.3-4.5-0.9v-3.4c0.6,0.4,1.3,0.7,2,0.9
			c0.7,0.2,1.4,0.3,2,0.3c1.1,0,1.9-0.2,2.4-0.7c0.5-0.5,0.8-1.3,0.8-2.3c0-2-1.2-3-3.7-3H7.7V91h1.1c1.1,0,1.9-0.3,2.5-0.8
			c0.6-0.5,0.9-1.3,0.9-2.3c0-0.8-0.2-1.4-0.6-1.8c-0.4-0.4-0.9-0.6-1.6-0.6c-1,0-2,0.4-3,1.3l-1.7-2.5c1.4-1.4,3.1-2,5.1-2
			c1.7,0,3,0.4,4,1.3C15.4,84.5,15.9,85.6,15.9,87.1z"/>
		<path class="st11" d="M30.9,102.7H27l-2.9-7.2l-2.7,7.2h-3.9l4.6-10.5l-4.3-9.7h3.8l2.7,6.6l2.3-6.6h3.9l-4.3,9.8L30.9,102.7z"/>
		<path class="st11" d="M46.8,102.7L43,85.6h-0.2c0.2,1.3,0.3,2.5,0.3,3.6v13.5h-3.5V82.6h5.8l3.4,15.8h0.1l3.4-15.8h5.8v20.1h-3.6
			V89.1c0-1.1,0.1-2.3,0.2-3.5h-0.1l-3.8,17.1H46.8z"/>
		<path class="st11" d="M75.6,92.6c0,3.3-0.6,5.9-1.9,7.7c-1.2,1.8-3,2.7-5.4,2.7c-2.3,0-4.1-0.9-5.4-2.7c-1.2-1.8-1.9-4.4-1.9-7.7
			c0-3.3,0.6-5.9,1.9-7.7c1.2-1.8,3-2.7,5.4-2.7c2.3,0,4.1,0.9,5.3,2.7C74.9,86.8,75.6,89.3,75.6,92.6z M64.9,92.6
			c0,2.3,0.3,4,0.9,5.2c0.6,1.2,1.4,1.8,2.5,1.8c2.3,0,3.4-2.3,3.4-7c0-4.7-1.1-7-3.4-7c-1.1,0-2,0.6-2.6,1.8
			C65.2,88.6,64.9,90.3,64.9,92.6z"/>
		<path class="st11" d="M91.3,92.5c0,3.3-0.7,5.9-2,7.6c-1.4,1.8-3.3,2.6-5.8,2.6h-4.9V82.6h5.4c2.3,0,4.2,0.9,5.5,2.6
			C90.6,86.9,91.3,89.4,91.3,92.5z M87.5,92.6c0-4.5-1.2-6.7-3.7-6.7h-1.5v13.6h1.2c1.4,0,2.4-0.6,3-1.7
			C87.1,96.6,87.5,94.9,87.5,92.6z"/>
		<path class="st11" d="M103.3,102.7h-9.1V82.6h9.1v3.2H98v4.8h4.9v3.2H98v5.6h5.3V102.7z"/>
		<path class="st11" d="M110,94.9v7.8h-3.7V82.6h4.9c2.1,0,3.6,0.5,4.6,1.5c1,1,1.5,2.5,1.5,4.5c0,2.5-0.9,4.3-2.6,5.3l3.9,8.8h-4
			l-3.2-7.8H110z M110,91.7h1c0.9,0,1.5-0.3,1.9-0.8c0.4-0.5,0.6-1.2,0.6-2.2c0-1-0.2-1.8-0.6-2.2c-0.4-0.4-1-0.7-1.9-0.7H110V91.7z
			"/>
		<path class="st11" d="M134.4,102.7h-4.6l-6.2-14.6h-0.2c0.2,1.1,0.3,2.3,0.3,3.6v11h-3.5V82.6h4.6l6.2,14.4h0.2
			c-0.2-1-0.3-2.1-0.3-3.4v-11h3.4V102.7z"/>
		<path class="st11" d="M154.4,102.7l-1.2-5.1H148l-1.2,5.1h-3.7l5-20.2h5.1l5,20.2H154.4z M152.6,94.3l-1.1-4.7
			c-0.1-0.3-0.2-1-0.4-2.1c-0.2-1.1-0.4-1.9-0.4-2.3c-0.1,0.8-0.3,1.7-0.5,2.6c-0.2,0.9-0.7,3.1-1.4,6.5H152.6z"/>
		<path class="st11" d="M160.6,102.7V82.6h3.5v20.1H160.6z"/>
	</g>
	<g class="st10">
		<path class="st12" d="M26,109.3h2.3c0.9,0,1.6,0.2,2.1,0.7s0.7,1.2,0.7,2.1c0,1.6-0.6,2.5-1.8,2.8v0.1c0.7,0.1,1.2,0.4,1.5,0.9
			c0.3,0.5,0.5,1.1,0.5,1.9c0,1.1-0.2,1.9-0.7,2.5c-0.5,0.6-1.1,0.9-2,0.9H26V109.3z M26.7,114.6h1.5c0.7,0,1.3-0.2,1.6-0.6
			c0.3-0.4,0.5-1,0.5-1.9c0-0.7-0.2-1.2-0.5-1.5s-0.9-0.5-1.6-0.5h-1.5V114.6z M26.7,115.3v5.1h1.8c1.3,0,2-0.9,2-2.7
			c0-0.8-0.2-1.4-0.6-1.8c-0.4-0.4-0.9-0.6-1.6-0.6H26.7z"/>
		<path class="st12" d="M38.9,121.1h-4.3v-11.8h4.3v0.8h-3.5v4.5h3.3v0.8h-3.3v5.1h3.5V121.1z"/>
		<path class="st12" d="M43.8,115.4l1.9-6.1h0.8l-2.4,7.2v4.6h-0.8v-4.6l-2.4-7.2h0.8L43.8,115.4z"/>
		<path class="st12" d="M55.5,115.2c0,2-0.3,3.5-0.9,4.5c-0.6,1.1-1.4,1.6-2.5,1.6c-1.1,0-2-0.5-2.5-1.6c-0.6-1.1-0.9-2.6-0.9-4.5
			c0-2,0.3-3.6,0.9-4.6s1.4-1.5,2.6-1.5c1.1,0,1.9,0.5,2.5,1.6C55.2,111.7,55.5,113.2,55.5,115.2z M49.5,115.2c0,1.8,0.2,3.1,0.7,4
			c0.4,0.9,1.1,1.3,1.9,1.3c0.8,0,1.5-0.4,1.9-1.3c0.4-0.9,0.7-2.2,0.7-4c0-1.8-0.2-3.1-0.6-4c-0.4-0.9-1.1-1.3-1.9-1.3
			c-0.9,0-1.5,0.5-2,1.4C49.8,112.1,49.5,113.5,49.5,115.2z"/>
		<path class="st12" d="M65.3,121.1h-1l-4.5-10.6h-0.1c0.1,0.7,0.1,1.4,0.1,2.1v8.5H59v-11.8h1l4.4,10.5h0c0-0.9-0.1-1.6-0.1-2.2
			v-8.3h0.8V121.1z"/>
		<path class="st12" d="M75,115.1c0,4-1.3,6-3.8,6h-2.1v-11.8h2.2c1.2,0,2.1,0.5,2.8,1.5C74.7,111.8,75,113.2,75,115.1z M74.2,115.1
			c0-1.7-0.2-2.9-0.7-3.8s-1.2-1.3-2.2-1.3h-1.3v10.4h1.3c1,0,1.8-0.4,2.3-1.3C73.9,118.2,74.2,116.9,74.2,115.1z"/>
		<path class="st12" d="M84.9,121.1h-0.8v-11.1h-2.4v-0.8h5.5v0.8h-2.4V121.1z"/>
		<path class="st12" d="M95.7,121.1h-0.8v-5.8h-4.1v5.8h-0.8v-11.8h0.8v5.3h4.1v-5.3h0.8V121.1z"/>
		<path class="st12" d="M99.5,121.1v-11.8h0.8v11.8H99.5z"/>
		<path class="st12" d="M110.4,121.1h-1l-4.5-10.6h-0.1c0.1,0.7,0.1,1.4,0.1,2.1v8.5h-0.8v-11.8h1l4.4,10.5h0c0-0.9-0.1-1.6-0.1-2.2
			v-8.3h0.8V121.1z"/>
		<path class="st12" d="M119.7,121.1h-0.9l-2.8-5.9l-0.9,1.2v4.7h-0.8v-11.8h0.8v6.3c0.3-0.5,1.4-2.6,3.5-6.3h0.9l-3,5.2
			L119.7,121.1z"/>
		<path class="st12" d="M122.3,121.1v-11.8h0.8v11.8H122.3z"/>
		<path class="st12" d="M133.2,121.1h-1l-4.5-10.6h-0.1c0.1,0.7,0.1,1.4,0.1,2.1v8.5H127v-11.8h1l4.4,10.5h0c0-0.9-0.1-1.6-0.1-2.2
			v-8.3h0.8V121.1z"/>
		<path class="st12" d="M141,115.2h2.6v5.6c-0.9,0.4-1.8,0.5-2.8,0.5c-1.3,0-2.3-0.5-3-1.6c-0.7-1.1-1.1-2.6-1.1-4.5
			c0-1.9,0.4-3.4,1.1-4.5c0.7-1.1,1.8-1.6,3.1-1.6c0.9,0,1.7,0.3,2.5,0.8l-0.4,0.7c-0.7-0.5-1.5-0.7-2.2-0.7c-1.1,0-1.9,0.5-2.5,1.4
			s-0.9,2.2-0.9,4c0,1.7,0.3,3,0.9,3.9c0.6,0.9,1.4,1.4,2.4,1.4c0.8,0,1.4-0.1,1.9-0.3v-4.3H141V115.2z"/>
	</g>
</g>
</svg>
